HIERARCHY
ROOT SpineBase
{
  OFFSET 0.000000 0.000000 0.000000
  CHANNELS 6 Xposition Yposition Zposition Zrotation Xrotation Yrotation
  JOINT SpineMid
  {
    OFFSET 0.000000 34.632451 0.000000
    CHANNELS 3 Zrotation Xrotation Yrotation
    JOINT SpineShoulder
    {
      OFFSET -0.318050 25.591443 -0.697779
      CHANNELS 3 Zrotation Xrotation Yrotation
      JOINT Neck
      {
        OFFSET -0.178308 8.438355 -0.652925
        CHANNELS 3 Zrotation Xrotation Yrotation
        JOINT Head
        {
          OFFSET -4.100620 10.715450 6.076815
          CHANNELS 3 Zrotation Xrotation Yrotation
          End Site
          {
            OFFSET 0 0 0
          }
        }
      }
      JOINT ShoulderLeft
      {
        OFFSET -3.451038 -5.149791 13.786189
        CHANNELS 3 Zrotation Xrotation Yrotation
        JOINT ElbowLeft
        {
          OFFSET -4.133560 -26.548624 3.778821
          CHANNELS 3 Zrotation Xrotation Yrotation
          JOINT WristLeft
          {
            OFFSET -0.104380 -26.636471 -6.970675
            CHANNELS 3 Zrotation Xrotation Yrotation
            JOINT HandLeft
            {
              OFFSET 0.913547 -10.933763 -6.285917
              CHANNELS 3 Zrotation Xrotation Yrotation
              JOINT HandTipLeft
              {
                OFFSET 0.828588 -1.623999 -4.453954
                CHANNELS 3 Zrotation Xrotation Yrotation
                End Site
                {
                  OFFSET 0 0 0
                }
              }
              JOINT ThumbLeft
              {
                OFFSET -1.728548 2.277143 2.167784
                CHANNELS 3 Zrotation Xrotation Yrotation
                End Site
                {
                  OFFSET 0 0 0
                }
              }
            }
          }
        }
      }
      JOINT ShoulderRight
      {
        OFFSET 2.802876 -3.896004 -15.454602
        CHANNELS 3 Zrotation Xrotation Yrotation
        JOINT ElbowRight
        {
          OFFSET 1.493618 -25.543269 -8.924402
          CHANNELS 3 Zrotation Xrotation Yrotation
          JOINT WristRight
          {
            OFFSET -7.653163 -26.415589 -2.716195
            CHANNELS 3 Zrotation Xrotation Yrotation
            JOINT HandRight
            {
              OFFSET -0.483485 -6.879942 0.822056
              CHANNELS 3 Zrotation Xrotation Yrotation
              JOINT HandTipRight
              {
                OFFSET -3.018733 -6.440268 -0.919498
                CHANNELS 3 Zrotation Xrotation Yrotation
                End Site
                {
                  OFFSET 0 0 0
                }
              }
              JOINT ThumbRight
              {
                OFFSET 1.119685 -0.857392 3.039719
                CHANNELS 3 Zrotation Xrotation Yrotation
                End Site
                {
                  OFFSET 0 0 0
                }
              }
            }
          }
        }
      }
    }
  }
  JOINT HipLeft
  {
    OFFSET -2.685539 0.429142 1.843850
    CHANNELS 3 Zrotation Xrotation Yrotation
    JOINT KneeLeft
    {
      OFFSET -3.516007 -28.421361 6.497731
      CHANNELS 3 Zrotation Xrotation Yrotation
      JOINT AnkleLeft
      {
        OFFSET 12.394546 -39.269112 -0.684866
        CHANNELS 3 Zrotation Xrotation Yrotation
        JOINT FootLeft
        {
          OFFSET -4.173907 -7.071559 -1.015331
          CHANNELS 3 Zrotation Xrotation Yrotation
          End Site
          {
            OFFSET 0 0 0
          }
        }
      }
    }
  }
  JOINT HipRight
  {
    OFFSET 0.082254 2.334001 -9.207453
    CHANNELS 3 Zrotation Xrotation Yrotation
    JOINT KneeRight
    {
      OFFSET 2.673999 -30.510034 -6.750129
      CHANNELS 3 Zrotation Xrotation Yrotation
      JOINT AnkleRight
      {
        OFFSET 7.103843 -37.831480 -0.000633
        CHANNELS 3 Zrotation Xrotation Yrotation
        JOINT FootRight
        {
          OFFSET -13.553776 -1.700099 -6.874694
          CHANNELS 3 Zrotation Xrotation Yrotation
          End Site
          {
            OFFSET 0 0 0
          }
        }
      }
    }
  }
}
MOTION
Frames: 14
Frame Time: 0.033333
84.015196 74.987168 238.700371 -0.714447 2.593321 74.852336 -0.504371 -0.143054 -74.833502 0.360217 0.273135 0.023559 0.346804 -2.342446 -0.015554 0.000000 0.000000 0.000000 0.346804 -2.342446 -0.015554 -0.000000 0.000000 0.000000 0.292332 1.950090 -0.009989 -0.756087 -8.621554 -2.602358 0.000000 0.000000 0.000000 0.000000 0.000000 0.000000 0.346804 -2.342446 -0.015554 1.141157 0.665662 -0.317558 -8.455397 4.618182 -0.691581 18.819367 -10.044635 4.062572 0.000000 0.000000 0.000000 0.000000 0.000000 0.000000 -4.513186 -4.068390 -74.155829 -1.864145 1.254605 -1.272683 0.831851 -2.530878 2.840095 0.000000 0.000000 0.000000 -8.955955 -3.586612 -75.867399 -0.515326 6.975152 0.747703 20.828393 -10.620084 -2.025682 0.000000 0.000000 0.000000
84.000509 74.967179 238.680408 -0.713591 2.591333 74.667217 -0.502332 -0.143005 -74.648433 0.360772 0.276499 0.023675 0.346591 -2.345784 -0.015635 0.000000 0.000000 0.000000 0.346591 -2.345784 -0.015635 -0.000000 0.000000 0.000000 0.089559 1.180657 0.045964 -0.103747 -4.502906 -1.859469 0.000000 0.000000 0.000000 0.000000 0.000000 0.000000 0.346591 -2.345784 -0.015635 1.297541 0.675650 -0.337732 -10.205399 6.898535 -0.794963 21.727933 -13.435168 6.022116 0.000000 0.000000 0.000000 0.000000 0.000000 0.000000 -4.475269 -4.067952 -73.974159 -1.853453 1.133687 -1.298522 1.120628 -2.663958 2.973250 0.000000 0.000000 0.000000 -8.899426 -3.584710 -75.672101 -0.496400 6.926082 0.738019 20.591094 -10.503963 -2.094952 0.000000 0.000000 0.000000
83.988337 74.948826 238.656297 -0.712892 2.596627 74.599045 -0.500385 -0.142843 -74.580130 0.362745 0.281520 0.024087 0.344155 -2.358017 -0.016094 0.000000 0.000000 0.000000 0.344155 -2.358017 -0.016094 -0.000000 0.000000 0.000000 -0.273870 1.368737 0.273267 0.201804 -3.623358 -1.325978 0.000000 0.000000 0.000000 0.000000 0.000000 0.000000 0.344155 -2.358017 -0.016094 1.427560 0.706145 -0.361257 -11.166107 8.768665 -0.806124 23.804855 -15.055248 6.965541 0.000000 0.000000 0.000000 0.000000 0.000000 0.000000 -3.890814 -4.000199 -73.929292 -1.944662 0.122566 -1.388225 0.813166 -2.196686 3.115079 0.000000 0.000000 0.000000 -8.877471 -3.589254 -75.601095 -0.495311 6.902170 0.735571 18.168628 -9.205865 -1.558100 0.000000 0.000000 0.000000
83.981721 74.936474 238.631486 -0.704300 2.602582 74.658554 -0.498684 -0.143427 -74.639344 0.368893 0.286099 0.025344 0.327786 -2.370046 -0.017915 0.000000 0.000000 0.000000 0.327786 -2.370046 -0.017915 -0.000000 0.000000 0.000000 -1.056771 1.825625 0.770476 1.032663 -1.839366 -0.737060 0.000000 0.000000 0.000000 0.000000 0.000000 0.000000 0.327786 -2.370046 -0.017915 1.511107 0.716194 -0.373520 -11.466887 9.943836 -0.788228 25.520026 -17.609509 8.663740 0.000000 0.000000 0.000000 0.000000 0.000000 0.000000 -3.667672 -3.933882 -74.004644 -1.951853 -0.312501 -1.425186 0.528984 -1.729677 3.042771 0.000000 0.000000 0.000000 -8.893693 -3.568356 -75.658188 -0.489136 6.905351 0.734136 13.880132 -6.972415 -0.469242 0.000000 0.000000 0.000000
83.974517 74.933563 238.608577 -0.693170 2.608260 74.872442 -0.498232 -0.145446 -74.852834 0.376580 0.291435 0.026978 0.304868 -2.380999 -0.020360 0.000000 0.000000 0.000000 0.304868 -2.380999 -0.020360 -0.000000 0.000000 0.000000 -2.648516 2.429513 1.763883 1.818551 -2.629484 0.316488 0.000000 0.000000 0.000000 0.000000 0.000000 0.000000 0.304868 -2.380999 -0.020360 1.567598 0.763593 -0.394169 -11.416166 10.263919 -0.767948 25.389887 -17.503701 8.491772 0.000000 0.000000 0.000000 0.000000 0.000000 0.000000 -3.639775 -3.857560 -74.232027 -1.903187 -0.422532 -1.425143 -0.234996 -1.449149 3.015054 0.000000 0.000000 0.000000 -8.917683 -3.553800 -75.877417 -0.516444 6.914519 0.742566 6.539479 -3.378352 1.556022 0.000000 0.000000 0.000000
83.965679 74.932357 238.590165 -0.679373 2.611958 75.217106 -0.497165 -0.145896 -75.197097 0.383292 0.298523 0.028668 0.280429 -2.392775 -0.022975 0.000000 0.000000 0.000000 0.280429 -2.392775 -0.022975 -0.000000 0.000000 0.000000 -4.371030 3.470278 2.894869 3.294642 -3.520021 -0.130289 0.000000 0.000000 0.000000 0.000000 0.000000 0.000000 0.280429 -2.392775 -0.022975 1.597423 0.816682 -0.413632 -10.700600 9.281960 -0.739857 23.697817 -16.187902 7.480014 0.000000 0.000000 0.000000 0.000000 0.000000 0.000000 -3.812364 -3.789141 -74.582652 -1.825688 -0.220711 -1.401322 -0.251491 -1.186083 2.791895 0.000000 0.000000 0.000000 -8.928372 -3.552704 -76.235221 -0.008568 6.267673 0.573061 6.648879 -3.068931 2.194049 0.000000 0.000000 0.000000
83.962934 74.938599 238.576875 -0.657667 2.612404 75.698613 -0.496606 -0.148720 -75.678050 0.391796 0.304175 0.030974 0.242851 -2.398851 -0.026777 0.000000 0.000000 0.000000 0.242851 -2.398851 -0.026777 -0.000000 0.000000 0.000000 -5.859799 4.084922 3.858311 3.997811 -4.321463 0.852083 0.000000 0.000000 0.000000 0.000000 0.000000 0.000000 0.242851 -2.398851 -0.026777 1.603967 0.857575 -0.426807 -10.567181 9.386806 -0.726833 24.703497 -15.839631 7.344496 0.000000 0.000000 0.000000 0.000000 0.000000 0.000000 -4.177076 -3.724032 -75.060614 -1.728892 0.320586 -1.344248 -0.856164 -1.011734 2.562172 0.000000 0.000000 0.000000 -8.971228 -3.543751 -76.735866 -0.027839 6.290745 0.590535 8.024430 -3.757519 2.417100 0.000000 0.000000 0.000000
83.954085 74.949986 238.561008 -0.633335 2.613787 76.225232 -0.497903 -0.152235 -76.204082 0.399398 0.308908 0.033316 0.202907 -2.403082 -0.030779 0.000000 0.000000 0.000000 0.202907 -2.403082 -0.030779 -0.000000 0.000000 0.000000 -7.683940 4.585805 5.024932 3.962426 -9.668490 1.607574 0.000000 0.000000 0.000000 0.000000 0.000000 0.000000 0.202907 -2.403082 -0.030779 1.614334 0.862675 -0.429519 -10.701023 9.350408 -0.731130 24.853856 -15.880722 7.412358 0.000000 0.000000 0.000000 0.000000 0.000000 0.000000 -4.799612 -3.683016 -75.569054 -1.607189 1.281655 -1.258628 -1.459850 -1.042698 2.303578 0.000000 0.000000 0.000000 -9.016268 -3.562865 -77.291938 -0.081381 6.394096 0.632269 6.561405 -3.200414 3.164723 0.000000 0.000000 0.000000
83.933565 74.961856 238.539165 -0.608006 2.615577 76.741210 -0.499089 -0.151314 -76.719633 0.402001 0.314269 0.035064 0.171349 -2.409564 -0.034005 0.000000 0.000000 0.000000 0.171349 -2.409564 -0.034005 -0.000000 0.000000 0.000000 -9.290041 5.163030 6.081925 3.982744 -14.870624 1.426264 0.000000 0.000000 0.000000 0.000000 0.000000 0.000000 0.171349 -2.409564 -0.034005 1.609602 0.854768 -0.426583 -10.950174 9.361065 -0.744052 24.275058 -15.915908 7.384884 0.000000 0.000000 0.000000 0.000000 0.000000 0.000000 -5.668369 -3.672910 -76.050387 -1.495842 2.642819 -1.149352 -1.671922 -1.116697 1.882690 0.000000 0.000000 0.000000 -9.048899 -3.614415 -77.845858 -0.207320 6.504901 0.690229 9.606774 -4.719467 3.045972 0.000000 0.000000 0.000000
83.910581 74.967525 238.501665 -0.577988 2.634109 77.193396 -0.505856 -0.148334 -77.171330 0.400408 0.325453 0.036734 0.143095 -2.433609 -0.037258 0.000000 0.000000 0.000000 0.143095 -2.433609 -0.037258 -0.000000 0.000000 0.000000 -10.093794 5.684899 6.647584 2.666261 -22.247455 1.068968 0.000000 0.000000 0.000000 0.000000 0.000000 0.000000 0.143095 -2.433609 -0.037258 1.600536 0.822119 -0.415634 -11.193484 9.336210 -0.760682 23.294354 -15.632236 7.111943 0.000000 0.000000 0.000000 0.000000 0.000000 0.000000 -6.070921 -3.581030 -76.495546 -1.423339 3.139350 -1.114016 -0.769743 -1.335571 1.748100 0.000000 0.000000 0.000000 -9.098336 -3.676334 -78.337363 -0.356180 6.614068 0.750667 7.651482 -3.920929 3.889525 0.000000 0.000000 0.000000
83.876321 74.968177 238.460050 -0.554509 2.653512 77.507030 -0.514901 -0.157195 -77.484165 0.399241 0.327771 0.038351 0.111080 -2.444754 -0.040634 0.000000 0.000000 0.000000 0.111080 -2.444754 -0.040634 -0.000000 0.000000 0.000000 -9.936169 5.847109 6.571837 1.854514 -25.169070 0.398234 0.000000 0.000000 0.000000 0.000000 0.000000 0.000000 0.111080 -2.444754 -0.040634 1.592627 0.786093 -0.403790 -11.651957 9.160146 -0.789909 23.717361 -15.362791 7.093528 0.000000 0.000000 0.000000 0.000000 0.000000 0.000000 -6.098086 -3.483791 -76.817428 -1.419438 3.013535 -1.132006 -0.230745 -1.194899 1.689483 0.000000 0.000000 0.000000 -9.128506 -3.759354 -78.689533 -1.274213 7.043531 0.966205 10.956803 -5.518414 2.884612 0.000000 0.000000 0.000000
83.837534 74.968959 238.429410 -0.536626 2.659656 77.850367 -0.515006 -0.171072 -77.826501 0.402284 0.320663 0.040161 0.073262 -2.441006 -0.044285 0.000000 0.000000 0.000000 0.073262 -2.441006 -0.044285 -0.000000 0.000000 0.000000 -9.842000 5.361881 6.448373 3.146514 -19.364862 1.577602 0.000000 0.000000 0.000000 0.000000 0.000000 0.000000 0.073262 -2.441006 -0.044285 1.593421 0.725325 -0.385387 -11.979147 8.857690 -0.818065 23.514184 -15.227028 7.095499 0.000000 0.000000 0.000000 0.000000 0.000000 0.000000 -6.235670 -3.406446 -77.160458 -1.402668 3.153555 -1.118747 0.232654 -1.023705 1.492302 0.000000 0.000000 0.000000 -9.182822 -3.831242 -79.071664 -1.415299 7.091681 1.010394 12.483949 -6.238437 2.326480 0.000000 0.000000 0.000000
83.795759 74.967930 238.464647 -0.518168 2.594125 78.197089 -0.479186 -0.172775 -78.172954 0.414928 0.321828 0.042443 0.029801 -2.411688 -0.047956 0.000000 0.000000 0.000000 0.029801 -2.411688 -0.047956 -0.000000 0.000000 0.000000 -9.722258 5.026570 6.329575 3.122532 -19.005503 1.580680 0.000000 0.000000 0.000000 0.000000 0.000000 0.000000 0.029801 -2.411688 -0.047956 1.595283 0.674258 -0.370050 -12.287961 8.586699 -0.844696 23.699196 -14.662180 6.864836 0.000000 0.000000 0.000000 0.000000 0.000000 0.000000 -6.231328 -3.280109 -77.514226 -1.356653 3.241884 -1.087016 0.388990 -0.606804 1.163915 0.000000 0.000000 0.000000 -9.032459 -3.860587 -79.435070 -1.553532 7.001848 1.040334 12.813387 -6.397281 2.121631 0.000000 0.000000 0.000000
83.755876 74.963288 238.566214 -0.493588 2.458704 78.522109 -0.417858 -0.163781 -78.498631 0.436778 0.332784 0.045244 -0.022940 -2.349476 -0.051816 0.000000 0.000000 0.000000 -0.022940 -2.349476 -0.051816 -0.000000 0.000000 0.000000 -9.588129 4.848621 6.223345 2.951438 -19.096486 1.700963 0.000000 0.000000 0.000000 0.000000 0.000000 0.000000 -0.022940 -2.349476 -0.051816 1.590185 0.624199 -0.354255 -12.572226 8.221269 -0.874530 24.095369 -14.476010 6.910622 0.000000 0.000000 0.000000 0.000000 0.000000 0.000000 -6.078677 -3.099440 -77.855338 -1.286161 3.277084 -1.032408 0.725360 0.073104 0.621276 0.000000 0.000000 0.000000 -8.698194 -3.835198 -79.752426 -1.670376 6.791624 1.052148 11.879641 -5.952992 2.230381 0.000000 0.000000 0.000000
